<svg width="18" height="32" viewBox="0 0 18 32" fill="none" xmlns="http://www.w3.org/2000/svg">
    <path d="M10.8706 15.1381C10.852 15.7273 11.3145 16.2201 11.9036 16.2386C12.4973 16.2587 12.9855 15.7948 13.004 15.2055C13.0123 14.949 13.1472 9.57098 10.6841 3.30007C11.2558 3.03909 12.0994 2.79305 12.9153 3.07026L10.8706 15.1381ZM10.8706 15.1381C10.8725 15.0747 11.0188 8.78207 7.85926 2.14929C6.45589 2.28632 4.74529 3.2857 3.93901 4.74528C4.22917 5.16663 4.51604 5.60862 4.79481 6.07608C4.82142 6.11279 4.84661 6.15093 4.86867 6.19177C4.87474 6.20287 4.87992 6.21422 4.88511 6.22557C4.8877 6.23125 4.89029 6.23692 4.893 6.24257C7.15288 10.1069 8.85166 15.7207 7.54819 25.911L10.8706 15.1381ZM0.107082 10.9851L0.107084 10.9851C0.18437 10.3486 0.489155 9.52705 0.934228 8.71352C1.3787 7.90109 1.95828 7.10545 2.57762 6.51941L2.63815 6.46214L2.59274 6.39227C2.37375 6.05536 2.15126 5.73299 1.92803 5.42335L1.92801 5.42333C1.73744 5.15913 1.69291 4.81645 1.80912 4.51218C2.35987 3.0713 3.46136 1.91959 4.72829 1.15386C5.99605 0.387628 7.42032 0.0133858 8.60837 0.116949C8.9418 0.146502 9.23635 0.346047 9.38709 0.644691L9.38713 0.644763C9.51164 0.890953 9.63191 1.13745 9.74766 1.3827L9.78955 1.47146L9.87908 1.43124C10.9562 0.947252 12.6406 0.527245 14.3042 1.47445C14.5326 1.60449 14.6981 1.82128 14.763 2.07566L14.763 2.07569C17.0752 11.1326 16.9799 17.5432 16.9168 21.7896L16.9167 21.7904L16.9165 21.8056C16.9078 22.3946 16.8995 22.9521 16.8995 23.4514C16.8995 26.1561 16.3411 28.2698 15.3085 29.7046C14.2792 31.135 12.7722 31.9 10.8476 31.9C8.72221 31.9 7.46579 30.9162 6.78481 30.093L6.70776 30.1568L6.78481 30.093C5.62207 28.6878 5.32289 26.7993 5.5333 25.629L5.53343 25.629L5.53408 25.6239C5.86331 23.0398 5.99074 20.7738 5.96077 18.7709L5.96037 18.7442L5.94665 18.7212C5.1964 17.4642 4.14962 16.0226 3.12735 14.7575C2.10602 13.4935 1.10414 12.3993 0.442928 11.8403L0.442911 11.8403C0.19399 11.6299 0.0677513 11.3086 0.107082 10.9851ZM7.94954 2.10628L7.91937 2.04294L7.84954 2.04976C6.41543 2.1898 4.67465 3.20676 3.85148 4.69693L3.82158 4.75106L3.85665 4.80199C4.14574 5.2218 4.43141 5.66195 4.70892 6.12729L4.70858 6.1275L4.71384 6.13476C4.73879 6.16918 4.76134 6.20349 4.78068 6.23929L4.78093 6.23976C4.78544 6.248 4.78828 6.25425 4.79222 6.26295C4.79493 6.26892 4.79816 6.27605 4.80281 6.28577L4.8025 6.28591L4.80668 6.29305C7.05334 10.1348 8.75024 15.7254 7.449 25.8983L7.44896 25.8985C7.44658 25.9176 7.44339 25.9369 7.43966 25.957C7.37733 26.2843 7.39346 26.7751 7.5194 27.298C7.64568 27.8223 7.88439 28.3874 8.27513 28.8598L8.35219 28.7961L8.27514 28.8598C8.88443 29.5963 9.7543 29.9653 10.8474 29.9653C11.6961 29.9653 12.3827 29.7421 12.9333 29.3566C13.4831 28.9716 13.8915 28.4289 14.1916 27.7986C14.7906 26.5406 14.9649 24.9191 14.9649 23.4513C14.9649 22.9379 14.9732 22.3741 14.9821 21.7766L14.9824 21.7612L14.9824 21.7609C15.0427 17.6999 15.1335 11.5952 13.0124 3.04618L12.9992 2.99315L12.9475 2.97557C12.0953 2.68603 11.2223 2.94447 10.6425 3.2091L10.5564 3.24844L10.591 3.33663C13.0471 9.58978 12.9121 14.9525 12.9041 15.2023L12.904 15.2024C12.8873 15.7369 12.4448 16.1569 11.907 16.1387L11.9067 16.1387C11.3728 16.1219 10.9537 15.6753 10.9706 15.1412L10.9706 15.141C10.9726 15.0711 11.119 8.7599 7.94954 2.10628ZM3.70855 8.33332L3.64079 8.19792L3.54286 8.31339C2.96965 8.98924 2.40183 9.94357 2.151 10.7004L2.13118 10.7602L2.17654 10.8039C3.07841 11.6726 4.29438 13.0721 5.4399 14.5737L5.61822 14.4978C5.22573 11.9672 4.53283 9.98045 3.70855 8.33332Z" fill="#127E64" stroke="#FBFBFB" stroke-width="0.2"/>
</svg>
