<svg width="37" height="32" viewBox="0 0 37 32" fill="none" xmlns="http://www.w3.org/2000/svg">
<path fill-rule="evenodd" clip-rule="evenodd" d="M4.72223 21.0338C4.17864 21.0338 3.74279 20.5975 3.74279 20.0533C3.74279 19.514 4.17864 19.0727 4.72223 19.0727H8.16006C8.23841 17.9303 8.46368 16.886 8.81139 15.9398L5.58903 14.2679C4.75651 14.7043 3.74769 14.7337 2.47931 14.0032C2.47527 14.0005 2.47087 13.9978 2.46629 13.995C2.45422 13.9876 2.44099 13.9795 2.43034 13.9689L1.73984 13.5717H1.73494C0.907315 13.0912 0.349035 12.3166 0.118866 11.4586C-0.111302 10.6006 -0.0133578 9.64945 0.466567 8.82087V8.81597C0.696735 8.41394 0.946492 7.91385 1.22563 7.35492C1.60761 6.59008 2.03857 5.72718 2.52829 4.88389C4.08559 2.17753 6.14241 -0.190542 8.7918 1.34405C8.79914 1.34895 8.80771 1.35385 8.81628 1.35875C8.82485 1.36366 8.83342 1.36856 8.84077 1.37346L9.4823 1.74608C9.49699 1.75098 9.51658 1.76079 9.53617 1.7755C9.54351 1.7804 9.55208 1.7853 9.56066 1.7902C9.56923 1.79511 9.5778 1.80001 9.58514 1.80491L9.61942 1.82452L9.62922 1.83433L9.63411 1.82943C9.6537 1.84413 9.67207 1.85639 9.68859 1.86742C9.70512 1.87845 9.71981 1.88826 9.73206 1.89807C9.75654 1.91277 9.77613 1.92748 9.79572 1.94219C12.6851 3.94409 10.7181 7.01611 9.24973 9.30942L9.24234 9.32096C9.01707 9.66906 8.80649 9.99755 8.66447 10.2378C8.65957 10.2451 8.6559 10.2537 8.65223 10.2623C8.64855 10.2709 8.64488 10.2795 8.63998 10.2868C8.63019 10.3064 8.62039 10.3211 8.6106 10.3358C8.55216 10.4344 8.48794 10.5522 8.41912 10.6785C8.37837 10.7533 8.336 10.8311 8.29228 10.9095L8.21496 11.0518C8.09278 11.2768 7.9696 11.5037 7.85643 11.6939C7.62626 12.0911 7.3814 12.4882 7.11206 12.8559L9.66839 14.1846C10.8241 12.3166 12.5333 10.9928 14.4774 10.2035C15.8535 9.64945 17.3472 9.36999 18.8408 9.36509C20.3345 9.36509 21.8281 9.63474 23.2042 10.1888C25.0897 10.9389 26.7596 12.1989 27.9153 13.9689L29.9966 12.8265C29.1935 12.1695 28.3512 11.1595 27.5089 9.69358C27.4991 9.67397 27.4893 9.65926 27.4795 9.64455C27.3865 9.48169 27.2576 9.27828 27.1155 9.05416C27.048 8.94768 26.9775 8.83652 26.9065 8.72282C25.4276 6.42338 23.4442 3.32479 26.3874 1.32443L26.4168 1.30482V1.29992L26.4266 1.29502L26.5 1.24599L26.5294 1.23128L26.5637 1.20677C26.5784 1.19696 26.5931 1.18715 26.6127 1.17735L27.3571 0.750802C30.0064 -0.783786 32.0584 1.58428 33.6206 4.29065C34.0852 5.09889 34.5004 5.92513 34.8704 6.66149L34.9183 6.75678C35.1926 7.3108 35.4423 7.80598 35.6529 8.1737C35.6627 8.18841 35.6725 8.20311 35.6823 8.22273C36.2797 9.26213 36.0741 11.0026 35.2611 12.2332C34.9477 12.7039 34.5461 13.1207 34.0613 13.4099C33.5422 13.7237 32.9497 13.8904 32.2885 13.8463C32.2298 13.8414 32.171 13.8365 32.1122 13.8267C32.0388 13.91 31.9506 13.9836 31.8478 14.0424L28.8213 15.7045C29.218 16.7095 29.4775 17.8323 29.5657 19.0727H33.0084C33.552 19.0727 33.9879 19.514 33.9879 20.0533C33.9879 20.5975 33.552 21.0338 33.0084 21.0338H29.5412C29.4335 22.1027 29.1788 23.1323 28.7772 24.0981L32.1955 25.8729C32.6754 26.1181 32.8615 26.7064 32.6166 27.1869C32.3718 27.6674 31.7792 27.8586 31.2993 27.6085L27.8713 25.8288C27.4158 26.5299 26.8771 27.182 26.2503 27.7752L28.6695 30.1972C29.0515 30.5797 29.0515 31.1974 28.6695 31.5798C28.2875 31.9623 27.6705 31.9623 27.2836 31.5798L24.3306 28.6234H13.0866L10.212 31.5014C9.83 31.8838 9.20806 31.8838 8.82608 31.5014C8.4441 31.119 8.4441 30.4963 8.82608 30.1139L11.3187 27.6184C10.8339 27.1379 10.3932 26.6084 10.0014 26.0396L6.82312 27.785C6.3481 28.0449 5.75554 27.8733 5.49599 27.3977C5.23643 26.9271 5.40784 26.3289 5.88286 26.0691L9.04645 24.3335C8.59591 23.3088 8.29718 22.2007 8.18454 21.0338H4.72223ZM10.0847 19.9797C10.0896 20.0042 10.0896 20.0288 10.0896 20.0533C10.0896 20.0778 10.0896 20.1072 10.0847 20.1317C10.1091 21.4506 10.4226 22.7057 10.9759 23.8334L10.971 23.8383C11.4999 24.9218 12.2492 25.8827 13.1552 26.6623H24.5706C25.5059 25.8631 26.2405 24.8973 26.7596 23.8285C27.313 22.691 27.6117 21.431 27.6411 20.117V20.0533C27.6411 20.0239 27.6411 19.9944 27.646 19.965V19.9454V19.9405C27.6362 18.3765 27.313 17.0331 26.7547 15.8957C26.7253 15.8564 26.6959 15.8123 26.6714 15.7682C26.6421 15.7094 26.6127 15.6456 26.5931 15.5819C25.6626 13.8708 24.1837 12.6794 22.4844 12.0028C21.3384 11.5469 20.0896 11.3164 18.8408 11.3213C17.597 11.3213 16.3531 11.5567 15.2071 12.0224C12.3325 13.1844 10.0896 15.8368 10.0896 19.9797H10.0847ZM7.60121 8.2552C8.40857 6.99623 9.42801 5.40655 9.19337 4.31517C8.94806 3.7673 8.10192 3.19784 7.70952 2.98159C6.5097 2.41777 5.25602 4.06022 4.21782 5.86446V5.85956C3.75748 6.65382 3.34122 7.4873 2.97393 8.22763C2.66541 8.84539 2.38627 9.39941 2.1561 9.79654C1.94552 10.1544 1.90634 10.5712 2.00918 10.9536C2.11202 11.3311 2.35199 11.6694 2.71438 11.8802L3.40488 12.2774C3.42447 12.2872 3.43916 12.297 3.45875 12.3117C4.65367 13.003 5.50578 11.8606 6.1669 10.7134C6.26656 10.5388 6.35213 10.3853 6.43258 10.2411L6.47542 10.1642L7.45976 8.47767L7.59688 8.26195L7.60121 8.2552ZM26.9506 3.71702C26.7164 4.80638 27.7365 6.39706 28.5432 7.65495L28.552 7.66871L28.6891 7.87953L29.7126 9.54649C30.7998 11.2037 31.7107 11.841 32.4208 11.89C32.6558 11.9097 32.8713 11.8459 33.0574 11.7332C33.2729 11.6057 33.4688 11.3998 33.6304 11.1546C34.0711 10.4878 34.2425 9.63474 33.9928 9.20329C33.9781 9.18368 33.9683 9.16407 33.9585 9.14446C33.7234 8.72772 33.4639 8.20802 33.1749 7.62948C32.8076 6.89406 32.3865 6.05567 31.931 5.26632C30.8928 3.46207 29.6392 1.81962 28.4344 2.38835C27.982 2.69904 27.2567 3.40358 26.9506 3.71702Z" fill="#FBFBFB"/>
</svg>
