<svg width="32" height="32" viewBox="0 0 32 32" fill="none" xmlns="http://www.w3.org/2000/svg">
<path d="M14.2255 22.2394C12.7048 22.2394 11.4675 23.4767 11.4675 24.9972C11.4675 26.518 12.7048 27.7552 14.2255 27.7552C15.7461 27.7552 16.9833 26.518 16.9833 24.9972C16.9833 23.4767 15.7461 22.2394 14.2255 22.2394ZM14.2255 26.5534C13.3674 26.5534 12.6693 25.8553 12.6693 24.9972C12.6693 24.1393 13.3674 23.4412 14.2255 23.4412C15.0834 23.4412 15.7815 24.1393 15.7815 24.9972C15.7815 25.8553 15.0834 26.5534 14.2255 26.5534Z" fill="#127E64" stroke="#127E64" stroke-width="0.4"/>
<path d="M25.1056 20.1556C23.9493 20.1556 23.0085 21.0961 23.0085 22.2523C23.0085 23.4086 23.9493 24.3491 25.1056 24.3491C26.2618 24.3491 27.2023 23.4086 27.2023 22.2523C27.2023 21.0961 26.2618 20.1556 25.1056 20.1556ZM25.1056 23.1476C24.6119 23.1476 24.2103 22.746 24.2103 22.2523C24.2103 21.7587 24.6119 21.3573 25.1056 21.3573C25.5989 21.3573 26.0006 21.759 26.0006 22.2523C26.0006 22.746 25.5989 23.1476 25.1056 23.1476Z" fill="#127E64" stroke="#127E64" stroke-width="0.4"/>
<path d="M7.58046 17.0391C6.4951 17.0391 5.6123 17.9222 5.6123 19.0075C5.6123 20.0927 6.4951 20.9757 7.58046 20.9757C8.66558 20.9757 9.54861 20.0927 9.54861 19.0075C9.54861 17.9222 8.66558 17.0391 7.58046 17.0391ZM7.58046 19.7739C7.15772 19.7739 6.81409 19.43 6.81409 19.0075C6.81409 18.585 7.15772 18.2412 7.58046 18.2412C8.00319 18.2412 8.34683 18.585 8.34683 19.0075C8.34683 19.43 8.00296 19.7739 7.58046 19.7739Z" fill="#127E64" stroke="#127E64" stroke-width="0.4"/>
<path d="M24.0443 8.52667C25.1433 8.52667 26.0373 7.63261 26.0373 6.53364C26.0373 5.43466 25.1433 4.5406 24.0443 4.5406C22.9453 4.5406 22.0513 5.43466 22.0513 6.53364C22.0513 7.63261 22.9453 8.52667 24.0443 8.52667ZM24.0443 5.74239C24.4807 5.74239 24.8356 6.09729 24.8356 6.53364C24.8356 6.96999 24.4807 7.32489 24.0443 7.32489C23.608 7.32489 23.2531 6.96999 23.2531 6.53364C23.2531 6.09729 23.608 5.74239 24.0443 5.74239Z" fill="#127E64" stroke="#127E64" stroke-width="0.4"/>
<path d="M31.7316 13.7709L31.6685 13.3232C31.0901 9.21699 29.3574 5.39007 26.6571 2.25557C25.5243 0.940655 23.6139 0.616033 22.1148 1.48404L13.9518 6.20995C13.738 6.33389 13.6215 6.57589 13.6586 6.82023C13.734 7.31573 13.5746 7.80255 13.2211 8.15604C12.6603 8.7168 11.7705 8.76703 11.1518 8.27294C10.9584 8.11849 10.6898 8.0983 10.4758 8.22247L2.73906 12.7017C2.22784 12.9974 1.80933 13.415 1.51076 13.9049C1.41687 13.9929 1.35162 14.1105 1.32955 14.2431C1.11642 14.6982 1 15.2008 1 15.7176V22.8403C1 23.1722 1.26899 23.4412 1.60089 23.4412C2.4588 23.4412 3.15687 24.1393 3.15687 24.9972C3.15687 25.8553 2.4588 26.5534 1.60089 26.5534C1.26899 26.5534 1 26.8224 1 27.1543V27.5148C1 29.4365 2.56349 31 4.48517 31H21.8873C22.2192 31 22.4882 30.731 22.4882 30.3991C22.4882 29.541 23.1863 28.8429 24.0442 28.8429C24.9021 28.8429 25.6002 29.541 25.6002 30.3991C25.6002 30.731 25.8692 31 26.201 31H28.2805C30.2021 31 31.7656 29.4365 31.7656 27.5148V14.257C31.7656 14.0948 31.7541 13.9314 31.7316 13.7709ZM28.2805 29.7982H26.7362C26.4611 28.5655 25.3584 27.6411 24.0442 27.6411C22.73 27.6411 21.6272 28.5655 21.3521 29.7982H4.48517C3.28433 29.7982 2.29685 28.8664 2.20835 27.6876C3.4376 27.4101 4.35889 26.3093 4.35889 24.9972C4.35889 23.683 3.43455 22.5802 2.20178 22.3054V15.7176C2.20178 15.4501 2.25014 15.1888 2.33886 14.9438H6.42821C6.75987 14.9438 7.0291 14.6748 7.0291 14.3429C7.0291 14.011 6.75987 13.742 6.42821 13.742H3.34066C3.34066 13.7417 3.34089 13.7417 3.34113 13.7417L10.7527 9.45078C11.816 10.0611 13.1784 9.89816 14.0708 9.00574C14.5874 8.48912 14.875 7.78518 14.878 7.06247L22.7168 2.5241C23.7163 1.9455 24.9906 2.16239 25.7466 3.04002C28.2962 5.99941 29.9324 9.6132 30.4784 13.4906L30.5139 13.742H17.2473C17.4954 13.0425 18.1632 12.5402 18.9467 12.5402C19.2786 12.5402 19.5476 12.2712 19.5476 11.9393C19.5476 11.6074 19.2786 11.3384 18.9467 11.3384C17.4956 11.3384 16.2819 12.3721 16.0026 13.742H11.6358C11.3039 13.742 11.0349 14.011 11.0349 14.3429C11.0349 14.6748 11.3039 14.9438 11.6358 14.9438H16.0026C16.2819 16.3134 17.4956 17.3473 18.9467 17.3473C20.3975 17.3473 21.6115 16.3134 21.8906 14.9438H30.5638V27.5148C30.5638 28.7739 29.5395 29.7982 28.2805 29.7982ZM20.6459 14.9438C20.3978 15.6432 19.73 16.1455 18.9465 16.1455C18.1632 16.1455 17.4954 15.6432 17.2473 14.9438H20.6459Z" fill="#127E64" stroke="#127E64" stroke-width="0.4"/>
<path d="M9.11188 13.742C8.95391 13.742 8.79876 13.8063 8.68703 13.918C8.5753 14.0298 8.51099 14.1849 8.51099 14.3429C8.51099 14.5008 8.5753 14.656 8.68703 14.7677C8.79876 14.8795 8.95391 14.9438 9.11188 14.9438C9.26985 14.9438 9.425 14.8795 9.53673 14.7677C9.64845 14.656 9.71277 14.5008 9.71277 14.3429C9.71277 14.1849 9.64845 14.0298 9.53673 13.918C9.425 13.8063 9.26985 13.742 9.11188 13.742Z" fill="#127E64" stroke="#127E64" stroke-width="0.4"/>
</svg>
