<svg width="35" height="27" viewBox="0 0 35 27" fill="none" xmlns="http://www.w3.org/2000/svg">
<path d="M26.3451 13.4907C26.3451 21.4944 22.7071 25.9814 17.8563 25.9814C14.2183 25.9814 10.459 24.4049 7.30597 22.222C3.66791 19.6754 1 16.1586 1 13.4907C1 9.85262 5.72948 4.88059 11.3078 2.45522C13.3694 1.48507 15.6735 1 17.8563 1C25.8601 1 26.3451 8.63993 26.3451 13.4907Z" stroke="#127E64" stroke-width="2" stroke-linecap="round" stroke-linejoin="round"/>
<path d="M25.9814 8.27612C27.4366 6.69963 29.0131 5.48694 30.1045 5.48694C32.2873 5.48694 33.5 10.5802 33.5 13.9757C33.5 17.25 32.4086 22.4646 30.1045 22.4646C29.0131 22.4646 27.3153 21.2519 25.8601 19.5541" stroke="#127E64" stroke-width="2" stroke-linecap="round" stroke-linejoin="round"/>
<path fill-rule="evenodd" clip-rule="evenodd" d="M11.1867 10.0952C11.1867 10.944 10.4591 11.6716 9.61018 11.6716C8.7613 11.6716 8.03369 10.944 8.03369 10.0952C8.03369 9.24627 8.7613 8.51866 9.61018 8.51866C10.4591 8.51866 11.1867 9.125 11.1867 10.0952Z" fill="#127E64"/>
<path d="M12.7631 19.9179C11.3079 21.1306 9.36761 21.9795 7.42731 22.3433C3.66799 19.7966 1.12134 16.2798 1.12134 13.6119C1.12134 10.0951 5.85082 5.00187 11.4292 2.57649C14.5822 4.39552 16.6437 7.9123 16.6437 11.7929C16.6437 12.6418 16.5225 13.6119 16.2799 14.4608" stroke="#127E64" stroke-width="2" stroke-linecap="round" stroke-linejoin="round"/>
</svg>
