<svg width="34" height="34" viewBox="0 0 34 34" fill="none" xmlns="http://www.w3.org/2000/svg">
<path d="M18.0946 20.4549C17.1943 19.1028 15.9098 18.0197 14.3801 17.3227C13.4557 16.9015 12.463 16.629 11.4275 16.5118C11.2277 16.4039 10.8045 16.1891 10.2207 16.1891C9.55449 16.1891 9.12133 16.4155 8.91277 16.5347C7.85462 16.6742 6.84554 16.9765 5.91166 17.4338C5.91154 17.4338 5.91141 17.4339 5.91129 17.434C2.83598 18.9402 1 21.8736 1 25.2811C1 27.7304 1.96164 29.7487 3.78089 31.1178C5.41709 32.3492 7.65878 33 10.2636 33C12.8684 33 15.1102 32.3491 16.7463 31.1178C18.5655 29.7487 19.5272 27.7304 19.5272 25.2811C19.5272 23.5311 19.0318 21.8621 18.0946 20.4549ZM9.18143 17.7892C9.32732 17.7718 9.43091 17.7117 9.51413 17.6636C9.64078 17.5903 9.85285 17.4675 10.2207 17.4675C10.509 17.4675 10.7196 17.5821 10.8456 17.6504C10.9373 17.7003 11.0413 17.7568 11.1857 17.7716C11.8951 17.8439 12.5811 17.9995 13.2331 18.235C12.6474 19.0728 11.4635 19.6218 10.1349 19.6218C8.86063 19.6218 7.70052 19.1033 7.09396 18.3101C7.75548 18.0516 8.45485 17.8766 9.18143 17.7892ZM10.2636 31.7216C6.40329 31.7216 2.2783 30.0297 2.2783 25.2811C2.2783 22.5804 3.63068 20.2281 5.92739 18.8759C6.73744 20.1093 8.33798 20.9001 10.1349 20.9001C11.971 20.9001 13.6238 20.0504 14.4094 18.7668C16.8254 20.0973 18.2488 22.4903 18.2488 25.2811C18.2488 30.0297 14.1239 31.7216 10.2636 31.7216Z" fill="#127E64" stroke="#127E64" stroke-width="0.4"/>
<path d="M30.8536 3.56606C29.6161 2.32856 28.0857 1.49884 26.428 1.16638C24.8352 0.84684 23.1611 0.989409 21.5865 1.57817C21.5864 1.57824 21.5864 1.57824 21.5862 1.5783C20.6349 1.93413 19.7403 2.4433 18.9254 3.09254C18.7078 3.15759 18.2568 3.30486 17.8438 3.71772C17.3728 4.18886 17.2266 4.65517 17.1634 4.88685C16.5138 5.73375 16.0141 6.66086 15.6772 7.64455C15.6772 7.64462 15.6771 7.64468 15.6771 7.6448C14.5674 10.8845 15.3433 14.2573 17.7529 16.6668C19.2247 18.1385 20.9673 18.8992 22.8412 18.8992C23.1724 18.8992 23.5078 18.8755 23.8465 18.8276C25.8741 18.5414 27.9194 17.4165 29.7614 15.5746C31.6033 13.7327 32.7282 11.6873 33.0145 9.6597C33.3327 7.40516 32.5855 5.29802 30.8536 3.56606ZM18.2404 5.58422C18.3311 5.4686 18.362 5.35291 18.3868 5.25998C18.4246 5.11854 18.4877 4.88178 18.7478 4.6217C18.9516 4.41785 19.1815 4.34991 19.319 4.3093C19.4191 4.27973 19.5325 4.24614 19.6452 4.15445C20.198 3.70393 20.7931 3.32899 21.4205 3.03445C21.5989 4.04102 21.1499 5.26631 20.2104 6.2057C19.3093 7.1068 18.1225 7.56039 17.1327 7.42847C17.4178 6.77786 17.7885 6.15964 18.2404 5.58422ZM28.8574 14.6706C26.1278 17.4002 22.0146 19.1206 18.6568 15.7628C16.7472 13.8532 16.0401 11.2335 16.7079 8.65332C18.153 8.95275 19.8438 8.38015 21.1143 7.10956C22.4127 5.81114 22.9807 4.04171 22.6284 2.57854C25.2776 1.81092 27.9763 2.49657 29.9496 4.46999C33.3075 7.82773 31.5871 11.9409 28.8574 14.6706Z" fill="#127E64" stroke="#127E64" stroke-width="0.4"/>
<path d="M9.73646 29.3358C7.68278 29.3358 6.02371 28.6527 5.18471 27.4617C4.98148 27.1731 4.58272 27.1039 4.29407 27.3072C4.00549 27.5104 3.93636 27.9092 4.1396 28.1978C5.23716 29.756 7.22486 30.6141 9.73634 30.6141C10.0893 30.6141 10.3755 30.328 10.3755 29.975C10.3756 29.6219 10.0895 29.3358 9.73646 29.3358Z" fill="#127E64" stroke="#127E64" stroke-width="0.4"/>
<path d="M4.52482 25.4738C4.51867 25.3729 4.5156 25.2688 4.5156 25.1646C4.5156 24.8116 4.22946 24.5255 3.87645 24.5255C3.52345 24.5255 3.2373 24.8116 3.2373 25.1646C3.2373 25.2945 3.24119 25.4246 3.2489 25.5512C3.26945 25.8904 3.55096 26.1517 3.88629 26.1517C3.89933 26.1517 3.91243 26.1513 3.92552 26.1505C4.27797 26.1292 4.54625 25.8262 4.52482 25.4738Z" fill="#127E64" stroke="#127E64" stroke-width="0.4"/>
</svg>
