<svg width="31" height="34" viewBox="0 0 31 34" fill="none" xmlns="http://www.w3.org/2000/svg">
<path fill-rule="evenodd" clip-rule="evenodd" d="M21.7043 1.36352L29.8135 9.47755C30.0534 9.71843 30.1881 10.0445 30.1881 10.3845C30.1881 10.7245 30.0534 11.0506 29.8135 11.2914L19.3521 21.7917L19.0126 22.1312C17.8553 23.2598 16.3123 23.9065 14.6961 23.9402C14.276 23.9415 13.8574 23.891 13.4497 23.7899L11.5097 25.7299C11.391 25.8498 11.2498 25.945 11.0941 26.01C10.9384 26.075 10.7714 26.1085 10.6027 26.1085C10.434 26.1085 10.267 26.075 10.1113 26.01C9.95564 25.945 9.8144 25.8498 9.69577 25.7299L9.04103 25.0654L3.17254 29.8669C3.08657 29.9382 2.97864 29.9776 2.86699 29.9785C2.80316 29.9788 2.73989 29.9666 2.6808 29.9425C2.6217 29.9183 2.56796 29.8828 2.52264 29.8378L2.27529 29.5856C2.26397 29.5998 2.25265 29.6135 2.24157 29.6269C2.21468 29.6596 2.1892 29.6905 2.16859 29.7214C2.08197 29.8447 2.02322 29.9853 1.99642 30.1335C1.96962 30.2818 1.97541 30.4341 2.01339 30.5799C2.05524 30.7198 2.11215 30.8548 2.18314 30.9824C2.19237 30.9991 2.20159 31.0158 2.21079 31.0324C2.27899 31.1555 2.34584 31.2762 2.40139 31.4044C2.52374 31.6461 2.56527 31.9208 2.51987 32.188C2.47448 32.4551 2.34454 32.7007 2.14919 32.8885C2.06193 32.9608 1.95211 33.0002 1.83879 33C1.76754 33.0001 1.69714 32.9845 1.63259 32.9544C1.56805 32.9242 1.51094 32.8801 1.46534 32.8254C1.42451 32.7764 1.39374 32.7198 1.3748 32.6589C1.35586 32.598 1.34913 32.5339 1.35499 32.4704C1.36084 32.4069 1.37918 32.3451 1.40893 32.2887C1.43869 32.2323 1.47928 32.1823 1.52839 32.1416C1.55487 32.0846 1.56858 32.0225 1.56858 31.9597C1.56858 31.8969 1.55487 31.8348 1.52839 31.7778C1.48004 31.671 1.42497 31.5673 1.36349 31.4674C1.24719 31.2759 1.15128 31.0727 1.07734 30.8612C0.996758 30.5789 0.978878 30.2825 1.02496 29.9926C1.07104 29.7027 1.17996 29.4264 1.34409 29.1831C1.41287 29.0778 1.49077 28.9788 1.57689 28.8872L1.40229 28.7175C1.31777 28.632 1.268 28.5182 1.26262 28.3981C1.25724 28.278 1.29665 28.1602 1.37319 28.0676L6.18438 22.1845L5.51993 21.5201C5.28004 21.2792 5.14535 20.9531 5.14535 20.6131C5.14535 20.2732 5.28004 19.9471 5.51993 19.7062L7.45993 17.7662C7.23683 16.9077 6.89248 14.41 9.45327 11.854L19.8856 1.36352C20.1308 1.13015 20.4564 1 20.795 1C21.1335 1 21.4591 1.13015 21.7043 1.36352ZM2.40139 28.344L2.88639 28.829L8.34263 24.3428L6.86338 22.8878L2.40139 28.344ZM10.6027 25.1269C10.686 25.1269 10.7661 25.0944 10.8258 25.0363L12.6446 23.2564L8.01283 18.6246L6.19893 20.4385C6.14117 20.4975 6.10882 20.5767 6.10882 20.6592C6.10882 20.7417 6.14117 20.8209 6.19893 20.8799L7.16893 21.8499L9.40962 24.0663L10.3796 25.0363C10.4394 25.0944 10.5194 25.1269 10.6027 25.1269ZM19.032 20.7489L27.2624 12.47L27.9511 11.7861L29.1297 10.6076C29.1875 10.5475 29.2204 10.4678 29.2218 10.3845C29.2214 10.301 29.1883 10.2209 29.1297 10.1614L21.0156 2.05222C20.9868 2.02304 20.9524 1.99987 20.9145 1.98406C20.8767 1.96825 20.836 1.96011 20.795 1.96011C20.7539 1.96011 20.7133 1.96825 20.6754 1.98406C20.6375 1.99987 20.6032 2.02304 20.5743 2.05222L10.1371 12.5379C7.75578 14.9192 8.27958 17.1502 8.42993 17.6352L13.5903 22.8199C14.0365 22.9363 16.0784 23.4164 18.3385 21.4231C18.5946 21.2092 18.9075 20.8845 19.032 20.7489Z" fill="#127E64" stroke="#127E64" stroke-width="0.4"/>
</svg>
