<svg width="34" height="34" viewBox="0 0 34 34" fill="none" xmlns="http://www.w3.org/2000/svg">
<path d="M23.4021 6.25862C23.9522 6.25862 24.3982 5.81266 24.3982 5.26253C24.3982 4.7124 23.9522 4.26643 23.4021 4.26643C22.852 4.26643 22.406 4.7124 22.406 5.26253C22.406 5.81266 22.852 6.25862 23.4021 6.25862Z" fill="#127E64"/>
<path d="M10.5969 19.0631C11.1471 19.0631 11.593 18.6172 11.593 18.067C11.593 17.5169 11.1471 17.071 10.5969 17.071C10.0468 17.071 9.60083 17.5169 9.60083 18.067C9.60083 18.6172 10.0468 19.0631 10.5969 19.0631Z" fill="#127E64"/>
<path d="M23.4021 11.5939C23.9522 11.5939 24.3982 11.1479 24.3982 10.5978C24.3982 10.0477 23.9522 9.60172 23.4021 9.60172C22.852 9.60172 22.406 10.0477 22.406 10.5978C22.406 11.1479 22.852 11.5939 23.4021 11.5939Z" fill="#127E64"/>
<path d="M10.5969 24.3983C11.1471 24.3983 11.593 23.9524 11.593 23.4022C11.593 22.8521 11.1471 22.4061 10.5969 22.4061C10.0468 22.4061 9.60083 22.8521 9.60083 23.4022C9.60083 23.9524 10.0468 24.3983 10.5969 24.3983Z" fill="#127E64"/>
<path d="M19.1345 8.92623C19.6847 8.92623 20.1306 8.48026 20.1306 7.93013C20.1306 7.38 19.6847 6.93404 19.1345 6.93404C18.5844 6.93404 18.1384 7.38 18.1384 7.93013C18.1384 8.48026 18.5844 8.92623 19.1345 8.92623Z" fill="#127E64"/>
<path d="M6.3291 21.7308C6.87923 21.7308 7.3252 21.2848 7.3252 20.7347C7.3252 20.1846 6.87923 19.7386 6.3291 19.7386C5.77897 19.7386 5.33301 20.1846 5.33301 20.7347C5.33301 21.2848 5.77897 21.7308 6.3291 21.7308Z" fill="#127E64"/>
<path d="M30.8999 3.10011C26.7665 -1.03335 20.0407 -1.03342 15.9069 3.10018C14.3765 4.63124 13.363 6.563 12.9765 8.68462C12.5766 10.8516 10.8528 12.5759 8.68691 12.9761C6.56317 13.3629 4.63141 14.3764 3.10015 15.907C-1.03338 20.0406 -1.03338 26.7663 3.10015 30.8999C7.23367 35.0334 13.9594 35.0334 18.093 30.8999C19.6236 29.3686 20.6371 27.4368 21.0239 25.3131C21.424 23.1472 23.1484 21.4234 25.3154 21.0235C27.4369 20.637 29.3688 19.6235 30.8998 18.0931C35.0334 13.9593 35.0334 7.23351 30.8999 3.10011ZM29.4911 16.6844C28.248 17.927 26.6805 18.7498 24.9583 19.0636C21.9805 19.613 19.614 21.9788 19.065 24.9512C18.7501 26.6795 17.9271 28.2479 16.684 29.4914C13.3262 32.8493 7.86739 32.8496 4.50882 29.4912C1.15205 26.1344 1.15205 20.6725 4.50882 17.3157C5.75215 16.0729 7.3204 15.2499 9.04391 14.936C12.0212 14.386 14.387 12.0195 14.9357 9.04613C15.2502 7.3195 16.073 5.75198 17.3159 4.50866C20.6738 1.15089 26.1328 1.15022 29.4913 4.50879C32.8479 7.8655 32.8479 13.3274 29.4911 16.6844Z" fill="#127E64"/>
</svg>
