<svg width="39" height="39" viewBox="0 0 39 39" fill="none" xmlns="http://www.w3.org/2000/svg">
<path d="M19.5198 1C9.6464 1.00455 1.52662 9.33472 1.00023 19.8955C0.999923 19.9071 0.999923 19.9187 1.00023 19.9304C1.00023 23.041 3.34974 25.4027 5.86815 27.4596C7.04841 28.4236 8.27557 29.3392 9.38086 30.2269C9.09067 30.8075 8.93385 31.4397 8.93385 32.0834C8.93385 34.6932 11.3634 36.7175 14.2268 36.7175C14.615 36.7175 14.9976 36.667 15.3753 36.5934C15.6242 36.7891 15.8713 36.9676 16.1169 37.1179C17.3036 37.8444 18.4557 38.0404 19.5198 38.0404C20.5839 38.0404 21.7373 37.8444 22.924 37.1179C23.1692 36.9678 23.4158 36.79 23.6642 36.5947C24.0407 36.6677 24.4219 36.7174 24.8076 36.7174C27.6709 36.7174 30.0966 34.6932 30.0966 32.0834C30.0966 31.4404 29.9438 30.8094 29.6561 30.2295C30.7621 29.3411 31.9914 28.4244 33.1727 27.4596C35.6911 25.4027 38.0406 23.041 38.0406 19.9304C38.0409 19.9187 38.0409 19.9071 38.0406 19.8955C37.5142 9.33472 29.3931 1.00455 19.5198 1ZM19.5198 2.32292C28.6423 2.32712 36.2083 10.0329 36.7125 19.9446C36.7043 22.3646 34.7687 24.4444 32.3329 26.4338C29.892 28.4276 27.046 30.2282 25.5801 32.4102C25.4765 32.5644 25.3815 32.6802 25.2804 32.8236C23.828 31.4994 21.73 30.7605 19.5146 30.7605C17.3026 30.7605 15.2097 31.4998 13.7578 32.8211C13.6574 32.6785 13.5636 32.5634 13.4607 32.4102C11.9948 30.2282 9.14885 28.4276 6.70789 26.4338C4.2721 24.4444 2.33652 22.3646 2.32831 19.9446C2.83249 10.0329 10.3973 2.32712 19.5198 2.32292ZM19.5004 7.70372C19.1335 7.70802 18.8402 8.01 18.8467 8.37681V24.3242C18.8267 25.2259 20.1896 25.2259 20.1696 24.3242V8.37681C20.1761 8.00392 19.8733 7.69934 19.5004 7.70372ZM30.8537 9.43747C30.2925 9.46159 30.0149 10.13 30.3938 10.5446C30.579 10.7522 30.7599 10.9632 30.9364 11.1803C31.4854 11.9276 32.5817 11.0344 31.9609 10.3457C31.7719 10.1133 31.5796 9.88899 31.3808 9.66614C31.2491 9.51361 31.0551 9.42943 30.8537 9.43747ZM5.956 16.574C5.9349 16.5734 5.91376 16.5738 5.8927 16.5753C5.32794 16.6065 5.06031 17.2862 5.45216 17.6941L13.5783 26.4481C14.1711 27.1943 15.2453 26.1962 14.5446 25.5502L6.42496 16.7897C6.30431 16.6573 6.13509 16.5794 5.956 16.574ZM33.1158 16.574C33.0908 16.573 33.0658 16.5734 33.0409 16.5753C32.8707 16.5868 32.7114 16.6636 32.5965 16.7898L24.4717 25.5502C23.8381 26.199 24.8462 27.1307 25.4432 26.4481L33.568 17.6941C33.9648 17.2822 33.6874 16.5949 33.1158 16.574ZM10.4441 31.1067C11.9695 32.3172 12.8765 34.0448 14.0963 35.3894C11.9114 35.3307 10.2568 33.8247 10.2568 32.0834C10.2568 31.7508 10.3251 31.4234 10.4441 31.1067ZM28.5916 31.1119C28.7079 31.4272 28.7724 31.7534 28.7724 32.0835C28.7724 33.8232 27.1263 35.3269 24.9445 35.3882C26.2041 33.8767 27.2284 32.3073 28.5916 31.1119ZM19.5146 32.0835C21.4838 32.0835 23.3104 32.7879 24.4755 33.896C23.6492 34.9072 22.9039 35.5778 22.2302 35.9902C21.2683 36.5791 20.4366 36.7175 19.5198 36.7175C18.603 36.7175 17.7725 36.5791 16.8106 35.9902C16.1363 35.5773 15.3887 34.9063 14.5614 33.8933C15.7264 32.7872 17.548 32.0835 19.5146 32.0835Z" fill="#127E64" stroke="#127E64" stroke-width="0.4"/>
</svg>
