<svg width="34" height="40" viewBox="0 0 34 40" fill="none" xmlns="http://www.w3.org/2000/svg">
<path d="M12.8488 26.7795C11.5558 25.2271 10.2451 24.5672 10.19 24.5398C9.96708 24.4294 9.70537 24.4294 9.48247 24.5398C9.42732 24.5672 8.11669 25.2272 6.82365 26.7795C5.64443 28.1953 4.23872 30.667 4.23872 34.4024C4.23872 36.563 4.79755 38.0555 5.94708 38.9653C7.10568 39.8824 8.63411 40 9.83622 40C11.0383 40 12.5668 39.8824 13.7254 38.9653C14.8748 38.0555 15.4337 36.563 15.4337 34.4024C15.4337 30.6671 14.0281 28.1953 12.8488 26.7795ZM12.7364 37.7159C12.1329 38.1935 11.2385 38.4065 9.83622 38.4065C8.43396 38.4065 7.53951 38.1936 6.93607 37.7159C6.19325 37.128 5.83224 36.0442 5.83224 34.4025C5.83224 31.8165 6.56161 29.6144 8.00021 27.8575C8.70732 26.9938 9.42341 26.4531 9.83615 26.1813C10.2497 26.4535 10.9654 26.9942 11.6722 27.8575C13.1108 29.6144 13.8402 31.8164 13.8402 34.4025C13.8402 36.0442 13.4791 37.1281 12.7364 37.7159Z" fill="#127E64"/>
<path d="M16.076 13.7587C16.0487 13.7035 15.3887 12.393 13.8364 11.0999C12.4206 9.92069 9.94894 8.51499 6.21347 8.51499C4.05292 8.51499 2.56034 9.07382 1.6505 10.2234C0.733545 11.3821 0.615967 12.9104 0.615967 14.1126C0.615967 15.3148 0.733467 16.843 1.6505 18.0018C2.56034 19.1513 4.053 19.7101 6.21347 19.7101C9.94886 19.7101 12.4206 18.3044 13.8364 17.1252C15.3887 15.8322 16.0486 14.5215 16.076 14.4664C16.1865 14.2434 16.1865 13.9816 16.076 13.7587ZM12.7585 15.9485C11.0017 17.387 8.79956 18.1165 6.21354 18.1165C4.57183 18.1165 3.48808 17.7555 2.90019 17.0126C2.42261 16.4092 2.20956 15.5148 2.20956 14.1125C2.20956 12.7103 2.42253 11.8158 2.90019 11.2123C3.48808 10.4695 4.57183 10.1085 6.21354 10.1085C8.79956 10.1085 11.0017 10.8379 12.7585 12.2765C13.6221 12.9837 14.163 13.6998 14.4348 14.1124C14.1625 14.5259 13.6217 15.2417 12.7585 15.9485Z" fill="#127E64"/>
<path d="M33.3413 9.26243C33.174 7.4275 32.4202 4.68563 29.7789 2.04438C28.2512 0.516641 26.8008 -0.143671 25.3445 0.0259381C23.8768 0.196798 22.7128 1.19438 21.8628 2.0443C21.0128 2.8943 20.0152 4.05821 19.8444 5.52594C19.6749 6.98219 20.3352 8.43266 21.8628 9.9604C24.5042 12.6017 27.2459 13.3556 29.0809 13.5228C29.4141 13.5532 29.7302 13.5659 30.0262 13.5659C31.5177 13.5659 32.496 13.2428 32.5446 13.2264C32.7804 13.1469 32.9654 12.9618 33.0449 12.7261C33.0645 12.6678 33.5247 11.2744 33.3413 9.26243ZM31.6343 11.8158C31.1493 11.9156 30.2606 12.0395 29.1507 11.9288C26.8911 11.7037 24.8182 10.6623 22.9897 8.83368C21.8288 7.67282 21.3178 6.65125 21.4273 5.71032C21.5163 4.94586 21.9982 4.16274 22.9897 3.17133C23.9812 2.17977 24.7642 1.69797 25.5287 1.60899C25.6116 1.59938 25.695 1.59445 25.7792 1.59445C26.6506 1.59445 27.5934 2.11274 28.652 3.17149C30.4807 5.00008 31.522 7.07297 31.7472 9.33243C31.8579 10.443 31.7339 11.3318 31.6343 11.8158Z" fill="#127E64"/>
<path d="M30.0568 22.6279C27.4154 19.9866 24.6736 19.2328 22.8387 19.0655C20.8266 18.8822 19.4332 19.3423 19.375 19.362C19.1392 19.4415 18.9542 19.6266 18.8746 19.8623C18.855 19.9206 18.3948 21.3141 18.5782 23.3259C18.7455 25.1609 19.4993 27.9027 22.1406 30.5441C23.5126 31.9162 24.8223 32.5884 26.13 32.5884C26.2782 32.5884 26.4267 32.5798 26.5752 32.5624C28.0429 32.3916 29.2068 31.394 30.0568 30.5441C30.9068 29.6941 31.9043 28.5302 32.0752 27.0624C32.2447 25.6062 31.5845 24.1555 30.0568 22.6279ZM30.4921 26.8782C30.4032 27.6427 29.9213 28.4258 28.9298 29.4173C27.9383 30.4087 27.1553 30.8905 26.3909 30.9795C25.4495 31.0891 24.4282 30.578 23.2675 29.4172C21.4389 27.5885 20.3975 25.5156 20.1725 23.2561C20.0617 22.1444 20.186 21.2549 20.2857 20.7712C21.5036 20.5189 25.2946 20.1194 28.9299 23.7548C30.0906 24.9156 30.6016 25.9373 30.4921 26.8782Z" fill="#127E64"/>
<path d="M25.0182 27.8613C24.9737 27.8202 24.9288 27.7769 24.8833 27.7315C24.5723 27.4202 24.0677 27.42 23.7564 27.7311C23.4451 28.0422 23.445 28.5467 23.756 28.858C23.8166 28.9186 23.8766 28.9763 23.9359 29.0312C24.0893 29.173 24.2832 29.2431 24.4768 29.2431C24.6911 29.2431 24.9049 29.1571 25.0619 28.9873C25.3607 28.6642 25.3412 28.1601 25.0182 27.8613Z" fill="#127E64"/>
<path d="M28.3847 27.7313C28.0734 27.4201 27.569 27.4201 27.2577 27.7313C26.8865 28.1025 26.5908 28.3131 26.3273 28.3944C25.9068 28.5238 25.6708 28.9699 25.8002 29.3904C25.9057 29.7329 26.221 29.953 26.5615 29.953C26.6391 29.953 26.7182 29.9415 26.7962 29.9175C27.4815 29.7065 28.031 29.212 28.3847 28.8582C28.6959 28.547 28.6959 28.0424 28.3847 27.7313Z" fill="#127E64"/>
<path d="M12.8488 26.7795C11.5558 25.2271 10.2451 24.5672 10.19 24.5398C9.96708 24.4294 9.70537 24.4294 9.48247 24.5398C9.42732 24.5672 8.11669 25.2272 6.82365 26.7795C5.64443 28.1953 4.23872 30.667 4.23872 34.4024C4.23872 36.563 4.79755 38.0555 5.94708 38.9653C7.10568 39.8824 8.63411 40 9.83622 40C11.0383 40 12.5668 39.8824 13.7254 38.9653C14.8748 38.0555 15.4337 36.563 15.4337 34.4024C15.4337 30.6671 14.0281 28.1953 12.8488 26.7795ZM12.7364 37.7159C12.1329 38.1935 11.2385 38.4065 9.83622 38.4065C8.43396 38.4065 7.53951 38.1936 6.93607 37.7159C6.19325 37.128 5.83224 36.0442 5.83224 34.4025C5.83224 31.8165 6.56161 29.6144 8.00021 27.8575C8.70732 26.9938 9.42341 26.4531 9.83615 26.1813C10.2497 26.4535 10.9654 26.9942 11.6722 27.8575C13.1108 29.6144 13.8402 31.8164 13.8402 34.4025C13.8402 36.0442 13.4791 37.1281 12.7364 37.7159Z" stroke="#127E64" stroke-width="0.3"/>
<path d="M16.076 13.7587C16.0487 13.7035 15.3887 12.393 13.8364 11.0999C12.4206 9.92069 9.94894 8.51499 6.21347 8.51499C4.05292 8.51499 2.56034 9.07382 1.6505 10.2234C0.733545 11.3821 0.615967 12.9104 0.615967 14.1126C0.615967 15.3148 0.733467 16.843 1.6505 18.0018C2.56034 19.1513 4.053 19.7101 6.21347 19.7101C9.94886 19.7101 12.4206 18.3044 13.8364 17.1252C15.3887 15.8322 16.0486 14.5215 16.076 14.4664C16.1865 14.2434 16.1865 13.9816 16.076 13.7587ZM12.7585 15.9485C11.0017 17.387 8.79956 18.1165 6.21354 18.1165C4.57183 18.1165 3.48808 17.7555 2.90019 17.0126C2.42261 16.4092 2.20956 15.5148 2.20956 14.1125C2.20956 12.7103 2.42253 11.8158 2.90019 11.2123C3.48808 10.4695 4.57183 10.1085 6.21354 10.1085C8.79956 10.1085 11.0017 10.8379 12.7585 12.2765C13.6221 12.9837 14.163 13.6998 14.4348 14.1124C14.1625 14.5259 13.6217 15.2417 12.7585 15.9485Z" stroke="#127E64" stroke-width="0.3"/>
<path d="M33.3413 9.26243C33.174 7.4275 32.4202 4.68563 29.7789 2.04438C28.2512 0.516641 26.8008 -0.143671 25.3445 0.0259381C23.8768 0.196798 22.7128 1.19438 21.8628 2.0443C21.0128 2.8943 20.0152 4.05821 19.8444 5.52594C19.6749 6.98219 20.3352 8.43266 21.8628 9.9604C24.5042 12.6017 27.2459 13.3556 29.0809 13.5228C29.4141 13.5532 29.7302 13.5659 30.0262 13.5659C31.5177 13.5659 32.496 13.2428 32.5446 13.2264C32.7804 13.1469 32.9654 12.9618 33.0449 12.7261C33.0645 12.6678 33.5247 11.2744 33.3413 9.26243ZM31.6343 11.8158C31.1493 11.9156 30.2606 12.0395 29.1507 11.9288C26.8911 11.7037 24.8182 10.6623 22.9897 8.83368C21.8288 7.67282 21.3178 6.65125 21.4273 5.71032C21.5163 4.94586 21.9982 4.16274 22.9897 3.17133C23.9812 2.17977 24.7642 1.69797 25.5287 1.60899C25.6116 1.59938 25.695 1.59445 25.7792 1.59445C26.6506 1.59445 27.5934 2.11274 28.652 3.17149C30.4807 5.00008 31.522 7.07297 31.7472 9.33243C31.8579 10.443 31.7339 11.3318 31.6343 11.8158Z" stroke="#127E64" stroke-width="0.3"/>
<path d="M30.0568 22.6279C27.4154 19.9866 24.6736 19.2328 22.8387 19.0655C20.8266 18.8822 19.4332 19.3423 19.375 19.362C19.1392 19.4415 18.9542 19.6266 18.8746 19.8623C18.855 19.9206 18.3948 21.3141 18.5782 23.3259C18.7455 25.1609 19.4993 27.9027 22.1406 30.5441C23.5126 31.9162 24.8223 32.5884 26.13 32.5884C26.2782 32.5884 26.4267 32.5798 26.5752 32.5624C28.0429 32.3916 29.2068 31.394 30.0568 30.5441C30.9068 29.6941 31.9043 28.5302 32.0752 27.0624C32.2447 25.6062 31.5845 24.1555 30.0568 22.6279ZM30.4921 26.8782C30.4032 27.6427 29.9213 28.4258 28.9298 29.4173C27.9383 30.4087 27.1553 30.8905 26.3909 30.9795C25.4495 31.0891 24.4282 30.578 23.2675 29.4172C21.4389 27.5885 20.3975 25.5156 20.1725 23.2561C20.0617 22.1444 20.186 21.2549 20.2857 20.7712C21.5036 20.5189 25.2946 20.1194 28.9299 23.7548C30.0906 24.9156 30.6016 25.9373 30.4921 26.8782Z" stroke="#127E64" stroke-width="0.3"/>
<path d="M25.0182 27.8613C24.9737 27.8202 24.9288 27.7769 24.8833 27.7315C24.5723 27.4202 24.0677 27.42 23.7564 27.7311C23.4451 28.0422 23.445 28.5467 23.756 28.858C23.8166 28.9186 23.8766 28.9763 23.9359 29.0312C24.0893 29.173 24.2832 29.2431 24.4768 29.2431C24.6911 29.2431 24.9049 29.1571 25.0619 28.9873C25.3607 28.6642 25.3412 28.1601 25.0182 27.8613Z" stroke="#127E64" stroke-width="0.3"/>
<path d="M28.3847 27.7313C28.0734 27.4201 27.569 27.4201 27.2577 27.7313C26.8865 28.1025 26.5908 28.3131 26.3273 28.3944C25.9068 28.5238 25.6708 28.9699 25.8002 29.3904C25.9057 29.7329 26.221 29.953 26.5615 29.953C26.6391 29.953 26.7182 29.9415 26.7962 29.9175C27.4815 29.7065 28.031 29.212 28.3847 28.8582C28.6959 28.547 28.6959 28.0424 28.3847 27.7313Z" stroke="#127E64" stroke-width="0.3"/>
</svg>
