<svg width="30" height="30" viewBox="0 0 30 30" fill="none" xmlns="http://www.w3.org/2000/svg">
<path d="M27.75 7.83019C26.25 6.41509 24.375 5.66038 22.3125 5.66038C20.2197 5.66038 18.2135 6.56786 16.7857 8.08891C16.6883 8.00837 16.594 7.92471 16.5 7.83019C15.75 7.07547 15.1875 6.03774 14.8125 5C13.6875 2.07547 10.875 0 7.6875 0C5.625 0 3.65625 0.754717 2.25 2.16981C0.84375 3.58491 0 5.56604 0 7.54717C0 8.11321 0.09375 8.67924 0.1875 9.24528C1.03125 12.9245 2.8125 16.2264 5.53125 18.9623C5.72854 19.1608 5.95172 19.3593 6.17361 19.5578C5.75889 20.5647 5.55937 21.6741 5.625 22.8302C5.625 23.1132 5.71875 23.4906 5.71875 23.7736C6.09375 25.8491 7.21875 27.5472 8.90625 28.6792C10.125 29.5283 11.625 30 13.125 30C13.6875 30 14.1562 30 14.625 29.8113C18.4688 29.0566 21.8438 27.2642 24.5625 24.5283C27.1875 21.8868 28.9688 18.4906 29.8125 14.8113C29.9062 14.3396 30 13.7736 30 13.2075C30 11.2264 29.1562 9.24528 27.75 7.83019ZM6.75 17.6415C4.3125 15.1887 2.71875 12.1698 1.96875 8.86792C1.875 8.49057 1.875 8.01887 1.875 7.64151C1.875 4.43396 4.5 1.79245 7.59375 1.98113C10.0312 1.98113 12.1875 3.49057 13.0312 5.75472C13.5 6.98113 14.25 8.20755 15.1875 9.24528C15.3382 9.39693 15.4892 9.5329 15.646 9.6602C15.4715 9.97907 15.3172 10.3125 15.1875 10.6604C15.1293 10.8362 15.0659 11.007 14.9986 11.1737C14.6494 10.9083 14.3263 10.6428 14.0624 10.3774C13.7812 10.0943 13.5937 9.71698 13.3124 9.43396L11.8124 10.566C12.0937 10.9434 12.3749 11.2264 12.7499 11.6038C13.1292 12.049 13.5938 12.4512 14.0861 12.8107C13.9052 13.0519 13.7102 13.279 13.4999 13.4906C12.6562 14.3396 11.6249 14.9057 10.4062 15.3774C9.04875 15.9323 7.90354 16.8357 7.07256 17.9637C6.9651 17.8577 6.85752 17.7497 6.75 17.6415ZM28.0312 14.5283C27.2812 17.8302 25.6875 20.9434 23.25 23.3019C20.8125 25.7547 17.7188 27.3585 14.3438 28.0189C11.25 28.5849 8.25 26.6038 7.6875 23.4906C7.59375 23.3019 7.59375 23.0189 7.59375 22.7359C7.5 20.283 8.90625 18.1132 11.1562 17.1698C12.5625 16.6038 13.7812 15.8491 14.9062 14.8113C15.75 13.7736 16.5 12.6415 16.9688 11.3208C17.8125 9.0566 19.9688 7.54717 22.4062 7.54717C23.9062 7.54717 25.3125 8.11321 26.4375 9.24528C27.4688 10.283 28.125 11.7925 28.125 13.3019C28.125 13.6792 28.125 14.1509 28.0312 14.5283Z" fill="#127E64"/>
<path d="M15.9375 15.9435C14.7187 17.0755 13.3125 18.0189 11.7188 18.585L12.375 20.3774C14.1562 19.6227 15.8437 18.6793 17.25 17.2642C17.5312 16.9812 17.8125 16.6038 18.0937 16.3208L16.5938 15.1888C16.4063 15.4718 16.125 15.7548 15.9375 15.9435Z" fill="#127E64"/>
<path d="M17.6294 13.6791L19.2231 14.6225C19.5981 14.0564 19.8794 13.396 20.1606 12.7357L18.3794 12.0753C18.1919 12.6413 17.9106 13.2074 17.6294 13.6791Z" fill="#127E64"/>
<path d="M12.375 8.01862C12.0937 7.4526 11.8125 6.98093 11.625 6.41492L9.84375 7.07526C10.0312 7.64127 10.4062 8.30162 10.6875 8.86763L12.375 8.01862Z" fill="#127E64"/>
</svg>
