<svg width="40" height="40" viewBox="0 0 40 40" fill="none" xmlns="http://www.w3.org/2000/svg">
    <path d="M30.2352 4.95354L30.1997 4.98889L27.312 7.86526C27.2736 7.90352 27.2112 7.90345 27.1729 7.86506M30.2352 4.95354L27.2083 7.82977M30.2352 4.95354L30.1998 4.91811L29.9986 4.71699C29.6173 4.33563 29.6173 3.7173 29.9986 3.33602C30.3801 2.95466 30.9984 2.95467 31.3796 3.33601L31.415 3.30066M30.2352 4.95354L31.415 3.30066M27.1729 7.86506L27.2083 7.82977M27.1729 7.86506L27.173 7.86512L27.2083 7.82977M27.1729 7.86506L26.2325 6.92465C25.658 6.35008 24.8943 6.03376 24.0818 6.03376C23.2693 6.03376 22.5057 6.35009 21.933 6.92274L21.933 6.92283L3.33883 25.4201M27.2083 7.82977L26.2679 6.8893C25.684 6.30534 24.9076 5.98376 24.0818 5.98376C23.2561 5.98376 22.4797 6.30534 21.8977 6.88738L3.30347 25.3847M3.33883 25.4201L3.30347 25.3847M3.33883 25.4201L3.33874 25.4202M3.33883 25.4201C3.3388 25.4201 3.33877 25.4201 3.33874 25.4202M3.30347 25.3847L3.33874 25.4202M3.30347 25.3847C2.46288 26.2253 2 27.3428 2 28.5316C2 29.7204 2.46288 30.838 3.30347 31.6785L3.33883 31.6431C2.50762 30.812 2.05 29.7071 2.05 28.5316C2.05 27.3561 2.50758 26.2514 3.33874 25.4202M33.1001 13.7218L33.0648 13.7571C33.6685 14.3607 34.0009 15.1632 34.0009 16.0169C34.0009 16.8706 33.6685 17.673 33.0648 18.2767C33.0648 18.2767 33.0648 18.2767 33.0648 18.2768L33.1001 18.3121V13.7218ZM33.1001 13.7218L33.0648 13.7571L32.1838 12.876C32.1454 12.8377 32.1453 12.7754 32.1834 12.737L32.1835 12.737L35.057 9.84649L35.0924 9.81093L35.1278 9.84639L35.2848 10.0034C35.4755 10.194 35.7253 10.2894 35.9752 10.2894C36.2252 10.2894 36.4751 10.194 36.6657 10.0034L36.7011 10.0387L36.6657 10.0034C37.0472 9.62186 37.0472 9.0036 36.6657 8.62224L31.3796 3.33601L31.415 3.30066M33.1001 13.7218L31.415 3.30066M23.3121 8.30554L23.312 8.30563L4.71798 26.8028L4.71789 26.8029C4.25757 27.2632 4.00294 27.878 4.00294 28.5315C4.00294 29.1852 4.25759 29.7999 4.71974 30.2621L9.73962 35.2819C10.6938 36.2361 12.2465 36.2362 13.2007 35.2819L31.6855 16.8938L31.6856 16.8937C31.9185 16.6608 32.0478 16.3486 32.0478 16.0168C32.0478 15.6849 31.9184 15.3726 31.6838 15.1379L30.8027 14.2569C30.0054 13.4595 30.0035 12.1599 30.7984 11.3601L33.6552 8.48595L33.6903 8.4506L33.6551 8.41536L31.6306 6.39038L31.5953 6.35508L31.56 6.39031L28.6901 9.2489C27.8904 10.0456 26.59 10.0444 25.7918 9.2461L25.7564 9.28145M23.3121 8.30554L23.3473 8.34098C23.5435 8.14485 23.8043 8.03677 24.0816 8.03677C24.359 8.03677 24.6198 8.14485 24.8159 8.34098L25.7564 9.28145M23.3121 8.30554C23.5176 8.10009 23.7911 7.98677 24.0816 7.98677C24.3723 7.98677 24.6458 8.10013 24.8513 8.30563L25.7918 9.2461L25.7564 9.28145M23.3121 8.30554L25.7564 9.28145" fill="#127E64" stroke="#FBFBFB" stroke-width="0.1"/>
    <path d="M13.1511 22.6203L13.1581 22.6698L13.1511 22.6203ZM13.1511 22.6203C13.7121 22.5409 14.2037 22.7123 14.6261 23.1346L14.5907 23.17M13.1511 22.6203L12.5605 25.7042C12.3288 25.4726 12.2005 25.2402 12.1883 25.0073C12.1759 24.7731 12.2815 24.55 12.4923 24.3391C12.6936 24.1379 12.9049 24.032 13.1258 24.0333C13.3459 24.0345 13.5644 24.1421 13.7808 24.3443C13.8824 24.4334 13.9932 24.4609 14.1184 24.4299C14.2475 24.3978 14.3958 24.3024 14.5634 24.1348C14.7515 23.9466 14.8421 23.786 14.8521 23.652C14.8617 23.5227 14.7835 23.3628 14.5907 23.17C14.5907 23.17 14.5907 23.17 14.5907 23.17M14.5907 23.17C14.1788 22.7581 13.7026 22.5928 13.1581 22.6698L14.5907 23.17ZM16.5459 28.4745C16.5459 28.4745 16.5459 28.4745 16.5459 28.4745L16.5459 28.4745Z" fill="#127E64" stroke="#FBFBFB" stroke-width="0.1"/>
    <path d="M18.7909 25.5237C19.3511 25.4813 19.8806 25.2106 20.3795 24.7116C20.8851 24.2062 21.1595 23.6729 21.2031 23.1116M18.7909 25.5237L18.7871 25.4738M18.7909 25.5237L18.7871 25.4738C18.7871 25.4738 18.7871 25.4738 18.7871 25.4738M18.7909 25.5237C18.2308 25.566 17.6737 25.3102 17.1195 24.7561L15.3141 22.9507C14.7601 22.3966 14.5042 21.8394 14.5465 21.2793M18.7871 25.4738C19.3326 25.4325 19.8515 25.169 20.3442 24.6763L20.3442 24.6763C20.8436 24.1769 21.1108 23.6542 21.1533 23.1077M18.7871 25.4738C18.2466 25.5146 17.703 25.2688 17.1549 24.7207L15.3495 22.9153C14.8015 22.3673 14.5555 21.8236 14.5964 21.2831L14.5465 21.2793M21.1533 23.1077L21.2031 23.1116M21.1533 23.1077C21.1533 23.1077 21.1533 23.1077 21.1533 23.1077L21.2031 23.1116M21.1533 23.1077C21.1952 22.5659 20.9499 22.0217 20.4019 21.4737L18.5964 19.6682C18.0485 19.1203 17.5043 18.875 16.9625 18.9169C16.416 18.9594 15.8933 19.2266 15.3939 19.726L20.4372 21.4383C20.9913 21.9925 21.2465 22.5502 21.2031 23.1116M14.5465 21.2793L14.5964 21.2831M14.5465 21.2793L14.5964 21.2831M14.5964 21.2831C14.6376 20.7377 14.9012 20.2188 15.3939 19.726L14.5964 21.2831ZM19.4883 23.8203L19.4883 23.8203C19.6958 23.6128 19.7988 23.3922 19.7846 23.1596C19.7705 22.9286 19.6414 22.6973 19.4099 22.4657L19.3745 22.501L19.4099 22.4657L17.6045 20.6603C17.373 20.4288 17.1416 20.2997 16.9106 20.2856C16.678 20.2714 16.4573 20.3743 16.2498 20.5818C16.0464 20.7852 15.9469 21.0028 15.9635 21.2332C15.98 21.4618 16.1102 21.6919 16.3416 21.9232C16.3416 21.9232 16.3416 21.9232 16.3416 21.9232L18.1469 23.7286C18.3783 23.96 18.6084 24.0902 18.837 24.1066C19.0674 24.1233 19.285 24.0237 19.4883 23.8203Z" fill="#127E64" stroke="#FBFBFB" stroke-width="0.1"/>
    <path d="M21.0346 16.8453C20.906 16.7167 20.7487 16.6469 20.5626 16.6354C20.3764 16.6243 20.1959 16.7061 20.021 16.8809L21.2464 18.6033C21.3066 18.2309 21.3264 17.885 21.3061 17.5656C21.2858 17.2461 21.1953 17.006 21.0346 16.8453ZM21.0346 16.8453L21.0699 16.8099C21.0699 16.8099 21.0699 16.8099 21.0699 16.8099M21.0346 16.8453L21.0699 16.8099M21.1389 19.7041L21.2958 18.6108C21.3565 18.2355 21.3766 17.8861 21.356 17.5624C21.3352 17.2358 21.2422 16.9822 21.0699 16.8099M21.1389 19.7041L19.1231 15.9965C18.7189 16.4007 18.4852 16.8681 18.42 17.3999C18.3553 17.9279 18.5139 18.3821 18.8984 18.7666C19.0781 18.9464 19.2447 19.0362 19.3984 19.0484C19.5501 19.0604 19.7002 18.9977 19.85 18.8479C20.0103 18.6876 20.0964 18.5243 20.1155 18.3573L20.1155 18.3573C20.1349 18.1884 20.0939 18.0599 19.9982 17.9642L19.9982 17.9642C19.8087 17.7747 19.7127 17.5787 19.7257 17.3777C19.7384 17.182 19.8268 17.0044 19.9857 16.8455L19.9857 16.8455C20.1672 16.6641 20.3608 16.5733 20.5656 16.5855L20.5656 16.5855C20.7636 16.5977 20.9325 16.6724 21.0699 16.8099M21.1389 19.7041C21.1389 19.7041 21.1389 19.7042 21.1389 19.7042C21.0885 20.0616 21.0881 20.4089 21.138 20.7462L21.138 20.7462C21.1875 21.0806 21.3074 21.3392 21.4946 21.5264C21.4946 21.5265 21.4946 21.5265 21.4946 21.5265L22.1596 22.1913L22.1242 22.2267L22.1596 22.1913C22.235 22.2668 22.3439 22.2936 22.4994 22.2578C22.6579 22.2213 22.7842 22.154 22.8811 22.0571L21.1389 19.7041ZM25.1565 18.9122L25.1565 18.9122C25.0404 18.7961 24.9108 18.727 24.7671 18.702L25.1565 18.9122ZM25.1565 18.9122C25.2726 19.0283 25.3446 19.1605 25.3744 19.3092M25.1565 18.9122L25.3744 19.3092M25.3744 19.3092L25.4235 19.2993L25.3744 19.3092ZM19.1231 15.9965C19.5398 15.5799 20.0258 15.338 20.5827 15.2693L20.5827 15.2693C21.1351 15.201 21.6156 15.3712 22.0278 15.7835L22.0278 15.7835C22.2968 16.0524 22.4788 16.3768 22.5739 16.7576L22.5739 16.7576C22.6699 17.1417 22.698 17.5158 22.6586 17.8801C22.6186 18.2493 22.5639 18.6059 22.4945 18.9496C22.4945 18.9496 22.4945 18.9496 22.4945 18.9496L22.5435 18.9595L19.1231 15.9965Z" fill="#127E64" stroke="#FBFBFB" stroke-width="0.1"/>
</svg>
