<svg width="29" height="33" viewBox="0 0 29 33" fill="none" xmlns="http://www.w3.org/2000/svg">
<path d="M10.9773 2.60387C9.62581 1.56964 8.10158 1 6.68578 1C3.55067 1 1 3.16106 1 5.81705C1 8.4733 3.55067 10.6344 6.68578 10.6344C9.72723 10.6344 11.1892 9.32205 13.3163 6.38072C13.4356 6.216 13.4727 6.00537 13.4169 5.80978C13.1116 4.73769 12.1996 3.53926 10.9773 2.60387ZM6.68578 9.30623C4.28296 9.30623 2.32812 7.74101 2.32812 5.81705C2.32812 3.89334 4.28296 2.32812 6.68578 2.32812C9.0598 2.32812 11.3949 4.353 12.0361 5.88216C10.1545 8.44398 9.06161 9.30623 6.68578 9.30623Z" fill="#127E64" stroke="#127E64" stroke-width="0.4"/>
<path d="M19.7952 11.4743C21.0239 12.7028 22.5946 13.3352 24.0708 13.3352C25.2584 13.3352 26.3847 12.9259 27.222 12.0885C29.1003 10.2102 28.8249 6.87849 26.608 4.66166C24.4573 2.51124 22.4955 2.40515 18.9116 2.98127C18.7109 3.01344 18.5358 3.13588 18.4367 3.31382C17.8948 4.28761 17.6922 5.77993 17.8951 7.30572C18.1192 8.9926 18.7941 10.4732 19.7952 11.4743ZM19.4642 4.23884C22.6063 3.75791 23.9886 3.92082 25.6687 5.60095C27.3678 7.30001 27.6433 9.78895 26.283 11.1495C24.9227 12.5098 22.4335 12.2343 20.7344 10.5352C19.0556 8.85641 18.8364 5.77345 19.4642 4.23884Z" fill="#127E64" stroke="#127E64" stroke-width="0.4"/>
<path d="M18.9648 25.225C18.9648 24.3895 19.6445 23.7096 20.48 23.7096H20.6061C20.9729 23.7096 21.2701 23.4123 21.2701 23.0455C21.2701 22.679 20.9729 22.3814 20.6061 22.3814H20.4803C18.9122 22.3814 17.6367 23.6569 17.6367 25.225C17.6367 25.5915 17.9342 25.889 18.3008 25.889C18.6676 25.889 18.9648 25.5918 18.9648 25.225Z" fill="#127E64" stroke="#127E64" stroke-width="0.4"/>
<path d="M9.78857 23.334H9.91438C11.4822 23.334 12.7577 22.0585 12.7577 20.4904C12.7577 20.1239 12.4604 19.8264 12.0936 19.8264C11.7271 19.8264 11.4295 20.1239 11.4295 20.4904C11.4295 21.3259 10.7499 22.0058 9.91438 22.0058H9.78857C9.42178 22.0058 9.12451 22.3031 9.12451 22.6699C9.12451 23.0364 9.42178 23.334 9.78857 23.334Z" fill="#127E64" stroke="#127E64" stroke-width="0.4"/>
<path d="M9.81541 15.3841C9.95108 15.3841 10.0878 15.3429 10.2055 15.257C10.2113 15.2529 10.2175 15.2482 10.2234 15.2435C10.5064 15.0249 10.5659 14.6192 10.3542 14.3279C10.1384 14.0311 9.72306 13.9657 9.42657 14.1813C9.4206 14.1854 9.41464 14.1901 9.40867 14.1948C9.12567 14.4135 9.06601 14.8192 9.27793 15.1105C9.40789 15.2892 9.61023 15.3841 9.81541 15.3841Z" fill="#127E64" stroke="#127E64" stroke-width="0.4"/>
<path d="M22.6983 18.9677C22.7006 18.9016 22.7019 18.8362 22.7019 18.7719C22.7019 15.5893 20.1129 13 16.9303 13C16.2411 13 15.5687 13.1206 14.9277 13.3587C14.2868 13.1206 13.6147 13 12.9254 13C12.7708 13 12.6147 13.0062 12.4614 13.0184C12.0956 13.0477 11.823 13.3676 11.852 13.7333C11.8813 14.0988 12.2022 14.372 12.5669 14.3424C12.6852 14.3331 12.8058 14.3281 12.9254 14.3281C13.4463 14.3281 13.9542 14.4179 14.439 14.5945C14.4764 16.0632 15.4144 17.3813 16.7975 17.8925C16.8735 17.9205 16.951 17.934 17.0276 17.934C17.2976 17.934 17.5516 17.768 17.6507 17.5001C17.7778 17.1558 17.6021 16.774 17.2582 16.6469C16.3653 16.3167 15.7653 15.4555 15.7653 14.5037V14.4843C16.1433 14.3813 16.5329 14.3281 16.9303 14.3281C19.3803 14.3281 21.3738 16.3216 21.3738 18.7719C21.3738 18.927 21.364 19.0904 21.3435 19.2715C21.3116 19.5537 21.4625 19.8248 21.7188 19.9462C22.8176 20.4668 23.5273 21.5879 23.5273 22.8024C23.5273 24.0224 22.8451 25.1119 21.7468 25.6455C21.516 25.7578 21.3704 25.9931 21.373 26.2496C21.373 26.2602 21.3733 26.2706 21.3738 26.2849C21.3712 28.7331 19.3788 30.724 16.93 30.724C16.4717 30.724 16.0232 30.6542 15.5918 30.5172V30.3012C15.5918 28.7959 14.6434 27.434 13.2318 26.9121C12.8878 26.785 12.5057 26.9606 12.3784 27.3048C12.2513 27.6488 12.4271 28.0306 12.7711 28.158C13.6639 28.488 14.2637 29.3492 14.2637 30.3012V30.5172C13.832 30.6542 13.3838 30.724 12.9254 30.724C10.4751 30.724 8.48166 28.7305 8.48166 26.2802V26.2825C8.48218 26.2717 8.48244 26.2608 8.48244 26.2496C8.48529 25.9931 8.33977 25.7578 8.10864 25.6455C7.01035 25.1119 6.32812 24.0224 6.32812 22.8024C6.32812 21.5879 7.03784 20.4668 8.13666 19.9462C8.39294 19.8248 8.54391 19.5537 8.51201 19.2715C8.49152 19.0904 8.48166 18.927 8.48166 18.7719C8.48166 18.195 8.59035 17.6344 8.80435 17.1055C8.94209 16.7654 8.77815 16.3782 8.43808 16.2407C8.09827 16.1029 7.71098 16.2669 7.5735 16.6069C7.29491 17.2949 7.15353 18.0233 7.15353 18.7719C7.15353 18.8365 7.15483 18.9016 7.15717 18.968C5.83345 19.7753 5 21.2341 5 22.8024C5 24.3703 5.8376 25.8353 7.16469 26.6418C7.35197 29.6568 9.864 32.0521 12.9254 32.0521C13.6144 32.0521 14.2868 31.9315 14.9277 31.6934C15.5687 31.9315 16.2411 32.0521 16.93 32.0521C19.9915 32.0521 22.5035 29.6568 22.6908 26.6418C24.0179 25.8353 24.8555 24.3703 24.8555 22.8024C24.8555 21.2341 24.022 19.7753 22.6983 18.9677Z" fill="#127E64" stroke="#127E64" stroke-width="0.4"/>
</svg>
