<svg width="20" height="20" viewBox="0 0 20 20" fill="none" xmlns="http://www.w3.org/2000/svg">
<path d="M16.5416 6.04172L7.70829 14.8751C7.63006 14.9539 7.52356 14.9983 7.41246 14.9983C7.30136 14.9983 7.19486 14.9539 7.11662 14.8751L2.62496 10.3834C2.54608 10.3052 2.50171 10.1987 2.50171 10.0876C2.50171 9.97646 2.54608 9.86996 2.62496 9.79172L3.20829 9.20839C3.28653 9.12951 3.39303 9.08514 3.50412 9.08514C3.61522 9.08514 3.72172 9.12951 3.79996 9.20839L7.40829 12.8167L15.3666 4.85839C15.5315 4.69857 15.7934 4.69857 15.9583 4.85839L16.5416 5.45006C16.6205 5.52829 16.6649 5.63479 16.6649 5.74589C16.6649 5.85699 16.6205 5.96349 16.5416 6.04172Z" fill="#38816F"/>
</svg>
