<svg width="18" height="18" viewBox="0 0 18 18" fill="none" xmlns="http://www.w3.org/2000/svg">
<path fill-rule="evenodd" clip-rule="evenodd" d="M3 7.5C3 4.18629 5.68629 1.5 9 1.5C12.3137 1.5 15 4.18629 15 7.5C15 10.3173 13.6323 11.4195 12.3572 12.447C11.5209 13.1209 10.7246 13.7626 10.38 14.835L9.9975 15.99C9.89025 16.309 9.58361 16.5175 9.2475 16.5H8.8275C8.49138 16.5175 8.18474 16.309 8.0775 15.99L7.695 14.835C7.33662 13.7658 6.5291 13.1247 5.68307 12.453C4.38675 11.4238 3 10.3228 3 7.5ZM6.74999 7.5C6.74999 8.74264 7.75735 9.75 8.99999 9.75C9.59673 9.75 10.169 9.51295 10.591 9.09099C11.0129 8.66903 11.25 8.09674 11.25 7.5C11.25 6.25736 10.2426 5.25 8.99999 5.25C7.75735 5.25 6.74999 6.25736 6.74999 7.5Z" fill="#454955"/>
</svg>
