<svg width="39" height="51" viewBox="0 0 39 51" fill="none" xmlns="http://www.w3.org/2000/svg">
<path fill-rule="evenodd" clip-rule="evenodd" d="M0 19.2631C0 8.64025 8.69516 0 19.38 0C30.0648 0 38.76 8.64025 38.76 19.2631C38.76 34.357 21.2017 49.9417 20.4545 50.5984C20.1466 50.8661 19.7633 51 19.38 51C18.9967 51 18.6134 50.8661 18.3055 50.5962C17.5583 49.9417 0 34.357 0 19.2631ZM8.61311 19.1249C8.61311 24.9835 13.443 29.7499 19.3798 29.7499C25.3165 29.7499 30.1464 24.9835 30.1464 19.1249C30.1464 13.2663 25.3165 8.49992 19.3798 8.49992C13.443 8.49992 8.61311 13.2663 8.61311 19.1249Z" fill="#8B0007"/>
</svg>
