<svg width="18" height="12" viewBox="0 0 18 12" fill="none" xmlns="http://www.w3.org/2000/svg">
<path fill-rule="evenodd" clip-rule="evenodd" d="M16.5 10.1667H16.9166C17.1467 10.1667 17.3333 10.3533 17.3333 10.5834V11.4167C17.3333 11.6469 17.1467 11.8334 16.9166 11.8334H1.08329C0.853174 11.8334 0.666626 11.6469 0.666626 11.4167V10.5834C0.666626 10.3533 0.853174 10.1667 1.08329 10.1667H1.49996V9.33342C1.50177 5.51512 4.37197 2.30767 8.16663 1.88341V0.583415C8.16663 0.353296 8.35317 0.166748 8.58329 0.166748H9.41663C9.64674 0.166748 9.83329 0.353296 9.83329 0.583415V1.88341C13.628 2.30767 16.4981 5.51512 16.5 9.33342V10.1667ZM8.99996 3.50008C5.7783 3.50008 3.16663 6.11175 3.16663 9.33341V10.1667H14.8333V9.33341C14.8333 6.11175 12.2216 3.50008 8.99996 3.50008Z" fill="#38816F"/>
</svg>
