<svg width="18" height="18" viewBox="0 0 18 18" fill="none" xmlns="http://www.w3.org/2000/svg">
<path fill-rule="evenodd" clip-rule="evenodd" d="M0.666687 8.99999C0.666687 4.39762 4.39765 0.666656 9.00002 0.666656C11.2102 0.666656 13.3298 1.54463 14.8926 3.10743C16.4554 4.67024 17.3334 6.78985 17.3334 8.99999C17.3334 13.6024 13.6024 17.3333 9.00002 17.3333C4.39765 17.3333 0.666687 13.6024 0.666687 8.99999ZM11.7013 10.8417C11.7013 10.7312 11.6556 10.6256 11.575 10.55L10.0334 8.99999L11.575 7.44999C11.6556 7.37438 11.7013 7.26881 11.7013 7.15832C11.7013 7.04784 11.6556 6.94227 11.575 6.86666L11.1334 6.42499C11.0578 6.34443 10.9522 6.29873 10.8417 6.29873C10.7312 6.29873 10.6256 6.34443 10.55 6.42499L9.00003 7.96666L7.45003 6.42499C7.37442 6.34443 7.26885 6.29873 7.15837 6.29873C7.04788 6.29873 6.94231 6.34443 6.8667 6.42499L6.42503 6.86666C6.34447 6.94227 6.29877 7.04784 6.29877 7.15832C6.29877 7.26881 6.34447 7.37438 6.42503 7.44999L7.9667 8.99999L6.42503 10.55C6.34447 10.6256 6.29877 10.7312 6.29877 10.8417C6.29877 10.9521 6.34447 11.0577 6.42503 11.1333L6.8667 11.575C6.94231 11.6556 7.04788 11.7013 7.15837 11.7013C7.26885 11.7013 7.37442 11.6556 7.45003 11.575L9.00003 10.0333L10.55 11.575C10.6256 11.6556 10.7312 11.7013 10.8417 11.7013C10.9522 11.7013 11.0578 11.6556 11.1334 11.575L11.575 11.1333C11.6556 11.0577 11.7013 10.9521 11.7013 10.8417Z" fill="#7E7F82"/>
</svg>
