<svg width="24" height="24" viewBox="0 0 24 24" fill="none" xmlns="http://www.w3.org/2000/svg">
<path d="M22.769 13.1078C22.7173 13.0045 22.5881 12.9528 22.4848 12.927C21.8907 12.927 16.7759 12.7203 16.7759 6.77893C16.7759 6.59811 16.6209 6.44312 16.4401 6.44312C16.2593 6.44312 16.1043 6.59811 16.1043 6.77893C16.1043 12.7203 10.9895 12.927 10.4212 12.927C10.3437 12.927 10.2663 12.9528 10.2146 13.0045C10.1629 13.0303 10.1371 13.082 10.1113 13.1078C10.0596 13.2111 10.0596 13.3403 10.1113 13.4436C10.1629 13.5469 10.2921 13.6244 10.4212 13.6244C10.4212 13.6244 10.4212 13.6244 10.4471 13.6244C11.0412 13.6244 16.1301 13.8311 16.1301 19.7725C16.1301 19.9533 16.2851 20.1083 16.4659 20.1083C16.6468 20.1083 16.8018 19.9533 16.8018 19.7725C16.8018 13.8569 21.8907 13.6244 22.4848 13.6244C22.614 13.6244 22.7173 13.5469 22.7948 13.4436C22.8465 13.3403 22.8465 13.2111 22.769 13.1078ZM16.4401 17.2409C15.691 14.7869 13.8569 13.7278 12.4103 13.2628C13.8569 12.7978 15.691 11.7387 16.4401 9.28464C17.1892 11.7387 19.0233 12.7978 20.4699 13.2628C19.0233 13.7278 17.1892 14.7869 16.4401 17.2409Z" fill="#212325"/>
<path d="M12.1778 6.39145C12.3587 6.39145 12.5137 6.23646 12.5137 6.0298C12.5137 5.84897 12.3587 5.69398 12.1778 5.69398C11.8679 5.69398 9.07799 5.59065 9.07799 2.33582C9.07799 2.15499 8.923 2 8.74218 2C8.56135 2 8.40636 2.15499 8.40636 2.33582C8.40636 5.59065 5.6165 5.69398 5.30652 5.69398C5.28069 5.69398 5.28069 5.69398 5.28069 5.69398C5.09986 5.71981 4.9707 5.84897 4.9707 6.0298C4.9707 6.21062 5.1257 6.36562 5.30652 6.36562C5.64234 6.36562 8.40636 6.46894 8.40636 9.72378C8.40636 9.90461 8.56135 10.0596 8.74218 10.0596C8.89717 10.0854 9.05216 9.93044 9.05216 9.74961C9.05216 6.49478 11.842 6.39145 12.152 6.39145H12.1778ZM8.71635 7.86387C8.30303 6.88226 7.5539 6.33978 6.85644 6.0298C7.60557 5.71981 8.30303 5.12568 8.71635 4.19572C9.12966 5.17734 9.87879 5.71981 10.5763 6.0298C9.82712 6.33978 9.12966 6.93392 8.71635 7.86387Z" fill="#212325"/>
<path d="M9.20715 17.3444C8.89716 17.3444 6.1073 17.241 6.1073 13.9862C6.1073 13.8054 5.95231 13.6504 5.77148 13.6504C5.59066 13.6504 5.43567 13.8054 5.43567 13.9862C5.43567 17.241 2.6458 17.3444 2.33582 17.3444C2.30998 17.3444 2.30998 17.3444 2.30998 17.3444C2.12916 17.3702 2 17.4994 2 17.6802C2 17.861 2.15499 18.016 2.33582 18.016C2.67163 18.016 5.43567 18.1193 5.43567 21.3742C5.43567 21.555 5.59066 21.71 5.77148 21.71C5.92648 21.7617 6.08147 21.6067 6.08147 21.4C6.08147 18.1452 8.87133 18.0418 9.18132 18.0418H9.20715C9.38797 18.0418 9.54297 17.8868 9.54297 17.6802C9.54297 17.4994 9.38797 17.3444 9.20715 17.3444ZM5.74565 19.5401C5.30651 18.5585 4.58321 18.016 3.88574 17.706C4.63487 17.396 5.33234 16.8019 5.74565 15.8719C6.15896 16.8536 6.90809 17.396 7.60556 17.706C6.85643 18.016 6.15896 18.6101 5.74565 19.5401Z" fill="#212325"/>
</svg>
