<svg width="24" height="24" viewBox="0 0 24 24" fill="none" xmlns="http://www.w3.org/2000/svg">
<path d="M11.9999 2.40002C14.6082 2.40002 14.9337 2.40962 15.957 2.45762C16.9794 2.50562 17.6754 2.66594 18.2879 2.90402C18.9215 3.14786 19.4553 3.4781 19.989 4.0109C20.4772 4.4908 20.8549 5.07131 21.0959 5.71202C21.333 6.32354 21.4943 7.0205 21.5423 8.0429C21.5874 9.06626 21.5999 9.3917 21.5999 12C21.5999 14.6083 21.5903 14.9338 21.5423 15.9571C21.4943 16.9795 21.333 17.6755 21.0959 18.288C20.8556 18.9291 20.4778 19.5097 19.989 19.9891C19.509 20.4771 18.9285 20.8548 18.2879 21.096C17.6764 21.3331 16.9794 21.4944 15.957 21.5424C14.9337 21.5875 14.6082 21.6 11.9999 21.6C9.39158 21.6 9.06614 21.5904 8.04278 21.5424C7.02038 21.4944 6.32438 21.3331 5.7119 21.096C5.07094 20.8555 4.49033 20.4777 4.01078 19.9891C3.52253 19.5093 3.1448 18.9288 2.9039 18.288C2.66582 17.6765 2.5055 16.9795 2.4575 15.9571C2.41238 14.9338 2.3999 14.6083 2.3999 12C2.3999 9.3917 2.4095 9.06626 2.4575 8.0429C2.5055 7.01954 2.66582 6.3245 2.9039 5.71202C3.14413 5.07092 3.52195 4.49025 4.01078 4.0109C4.49047 3.52249 5.07103 3.14472 5.7119 2.90402C6.32438 2.66594 7.01942 2.50562 8.04278 2.45762C9.06614 2.4125 9.39158 2.40002 11.9999 2.40002ZM11.9999 7.20002C10.7269 7.20002 9.50596 7.70574 8.60579 8.60591C7.70561 9.50609 7.1999 10.727 7.1999 12C7.1999 13.2731 7.70561 14.494 8.60579 15.3941C9.50596 16.2943 10.7269 16.8 11.9999 16.8C13.2729 16.8 14.4938 16.2943 15.394 15.3941C16.2942 14.494 16.7999 13.2731 16.7999 12C16.7999 10.727 16.2942 9.50609 15.394 8.60591C14.4938 7.70574 13.2729 7.20002 11.9999 7.20002ZM18.2399 6.96002C18.2399 6.64176 18.1135 6.33654 17.8884 6.1115C17.6634 5.88645 17.3582 5.76002 17.0399 5.76002C16.7216 5.76002 16.4164 5.88645 16.1914 6.1115C15.9663 6.33654 15.8399 6.64176 15.8399 6.96002C15.8399 7.27828 15.9663 7.58351 16.1914 7.80855C16.4164 8.0336 16.7216 8.16002 17.0399 8.16002C17.3582 8.16002 17.6634 8.0336 17.8884 7.80855C18.1135 7.58351 18.2399 7.27828 18.2399 6.96002ZM11.9999 9.12002C12.7637 9.12002 13.4963 9.42345 14.0364 9.96356C14.5765 10.5037 14.8799 11.2362 14.8799 12C14.8799 12.7638 14.5765 13.4964 14.0364 14.0365C13.4963 14.5766 12.7637 14.88 11.9999 14.88C11.2361 14.88 10.5035 14.5766 9.96343 14.0365C9.42333 13.4964 9.1199 12.7638 9.1199 12C9.1199 11.2362 9.42333 10.5037 9.96343 9.96356C10.5035 9.42345 11.2361 9.12002 11.9999 9.12002Z" fill="#454955"/>
</svg>
