<svg width="24" height="24" viewBox="0 0 24 24" fill="none" xmlns="http://www.w3.org/2000/svg">
<path fill-rule="evenodd" clip-rule="evenodd" d="M3.5 5C3.5 3.89543 4.39543 3 5.5 3C6.03043 3 6.53914 3.21071 6.91421 3.58579C7.28929 3.96086 7.5 4.46957 7.5 5C7.5 6.10457 6.60457 7 5.5 7C4.39543 7 3.5 6.10457 3.5 5ZM21 13.41C21.0345 11.2449 19.5574 9.34761 17.45 8.84999C16.0378 8.54589 14.5657 8.94466 13.5 9.91999V9.49999C13.5 9.22385 13.2762 8.99999 13 8.99999H10.5C10.2239 8.99999 10 9.22385 10 9.49999V19.5C10 19.7761 10.2239 20 10.5 20H13C13.2762 20 13.5 19.7761 13.5 19.5V13.86C13.4753 12.8557 14.1753 11.9787 15.16 11.78C15.7464 11.6788 16.3473 11.8439 16.7997 12.2305C17.252 12.6171 17.5087 13.185 17.5 13.78V19.5C17.5 19.7761 17.7239 20 18 20H20.5C20.7762 20 21 19.7761 21 19.5V13.41ZM7.50002 9.5V19.5C7.50002 19.7761 7.27616 20 7.00002 20H4.50002C4.22387 20 4.00002 19.7761 4.00002 19.5V9.5C4.00002 9.22386 4.22387 9 4.50002 9H7.00002C7.27616 9 7.50002 9.22386 7.50002 9.5Z" fill="#454955"/>
</svg>
