<svg width="6" height="10" viewBox="0 0 6 10" fill="none" xmlns="http://www.w3.org/2000/svg">
<path d="M0.480041 5.48006C0.386246 5.38639 0.333491 5.25929 0.333374 5.12673V4.8734C0.33491 4.74112 0.387451 4.61454 0.480041 4.52006L3.90671 1.10006C3.9693 1.03696 4.05449 1.00146 4.14337 1.00146C4.23225 1.00146 4.31745 1.03696 4.38004 1.10006L4.85337 1.5734C4.91608 1.63484 4.95142 1.71894 4.95142 1.80673C4.95142 1.89452 4.91608 1.97862 4.85337 2.04006L1.88671 5.00006L4.85337 7.96006C4.91648 8.02265 4.95197 8.10785 4.95197 8.19673C4.95197 8.28561 4.91648 8.37081 4.85337 8.4334L4.38004 8.90006C4.31745 8.96317 4.23225 8.99866 4.14337 8.99866C4.05449 8.99866 3.9693 8.96317 3.90671 8.90006L0.480041 5.48006Z" fill="#212325" stroke="#212325" stroke-width="0.5"/>
</svg>
